<svg xmlns="http://www.w3.org/2000/svg" xmlns:xlink="http://www.w3.org/1999/xlink" width="1640" zoomAndPan="magnify" viewBox="0 0 1230 693.000001" height="924" preserveAspectRatio="xMidYMid meet" version="1.0"><defs><g/><clipPath id="d32888c3cd"><path d="M 977.894531 228.875 L 1219.796875 228.875 L 1219.796875 347 L 977.894531 347 Z M 977.894531 228.875 " clip-rule="nonzero"/></clipPath><clipPath id="59965eb66e"><path d="M 10 382.222656 L 234.339844 382.222656 L 234.339844 492.316406 L 10 492.316406 Z M 10 382.222656 " clip-rule="nonzero"/></clipPath></defs><g fill="#000000" fill-opacity="1"><g transform="translate(76.894453, 419.475325)"><g><path d="M 10.722656 -55.148438 C 5.957031 -55.148438 3.574219 -54.296875 2.210938 -52.253906 C -0.679688 -47.828125 -3.914062 -34.210938 -3.914062 -26.722656 C -3.914062 -11.574219 8.511719 -0.851562 26.550781 -0.851562 C 35.402344 -0.851562 43.742188 -3.746094 49.699219 -8.851562 C 56.507812 -14.808594 60.253906 -22.46875 64.507812 -39.660156 C 69.785156 -60.59375 73.53125 -74.890625 77.445312 -89.019531 C 79.65625 -97.1875 81.019531 -102.804688 81.019531 -104.335938 C 81.019531 -107.230469 79.65625 -109.101562 76.59375 -110.292969 C 72.507812 -112.167969 66.890625 -113.359375 62.296875 -113.359375 C 55.488281 -113.359375 53.785156 -110.976562 50.382812 -97.359375 C 50.382812 -96.335938 47.488281 -85.953125 44.765625 -76.253906 C 41.699219 -65.871094 39.316406 -56.679688 37.273438 -48.679688 C 34.722656 -39.148438 33.191406 -33.871094 32.339844 -31.488281 C 31.316406 -28.765625 29.105469 -27.0625 26.722656 -27.0625 C 24.511719 -27.0625 22.808594 -28.933594 22.808594 -31.660156 C 22.808594 -33.359375 23.316406 -35.914062 25.019531 -41.359375 C 26.210938 -45.273438 26.722656 -47.488281 26.722656 -49.019531 C 26.722656 -50.550781 26.382812 -51.230469 25.53125 -52.082031 C 23.660156 -53.613281 16.511719 -55.148438 10.722656 -55.148438 Z M 10.722656 -55.148438 "/></g></g></g><g fill="#000000" fill-opacity="1"><g transform="translate(155.017901, 419.475325)"><g><path d="M 59.230469 -100.421875 C 60.421875 -105.867188 60.765625 -108.082031 60.765625 -110.632812 C 60.765625 -113.699219 59.230469 -114.890625 55.488281 -114.890625 C 48.507812 -114.890625 39.316406 -110.976562 31.316406 -104.847656 C 14.296875 -91.402344 2.894531 -65.53125 2.894531 -40.339844 C 2.894531 -26.722656 6.808594 -15.828125 14.636719 -8 C 20.59375 -2.042969 28.425781 1.363281 36.082031 1.363281 C 48.339844 1.363281 60.765625 -5.785156 70.804688 -18.550781 C 81.359375 -32.167969 89.359375 -58.210938 89.359375 -79.65625 C 89.359375 -98.378906 83.910156 -113.699219 77.105469 -113.699219 C 74.550781 -113.699219 73.1875 -112.675781 61.613281 -102.464844 Z M 57.699219 -93.273438 C 59.0625 -88.167969 59.574219 -84.59375 59.574219 -78.296875 C 59.574219 -54.125 49.359375 -28.933594 39.488281 -28.933594 C 35.234375 -28.933594 31.828125 -34.550781 31.828125 -41.699219 C 31.828125 -48.847656 34.042969 -58.039062 37.617188 -66.378906 C 41.359375 -74.890625 45.785156 -80.335938 51.914062 -84.253906 C 54.636719 -85.953125 54.636719 -86.125 55.316406 -86.804688 C 56 -87.65625 56.167969 -87.996094 57.019531 -90.890625 C 57.019531 -91.402344 57.359375 -92.253906 57.699219 -93.273438 Z M 57.699219 -93.273438 "/></g></g></g><g fill="#000000" fill-opacity="1"><g transform="translate(247.098038, 419.475325)"><g><path d="M 61.445312 -39.488281 C 69.785156 -43.914062 73.53125 -46.464844 77.785156 -50.550781 C 85.273438 -57.699219 90.039062 -69.105469 90.039062 -79.996094 C 90.039062 -99.570312 74.210938 -112.847656 50.890625 -112.847656 C 39.660156 -112.847656 18.210938 -108.933594 14.976562 -106.378906 C 12.425781 -104.167969 7.660156 -90.039062 7.660156 -84.761719 C 7.660156 -82.039062 8.851562 -80.679688 11.234375 -80.679688 C 13.785156 -80.679688 16.851562 -81.527344 21.617188 -83.402344 C 19.0625 -73.53125 18.894531 -73.019531 13.617188 -54.976562 C 4.9375 -24.511719 1.191406 -9.871094 1.191406 -7.320312 C 1.191406 -5.277344 2.382812 -3.914062 5.617188 -2.722656 C 10.382812 -0.851562 15.660156 0.171875 20.933594 0.171875 C 24.679688 0.171875 26.042969 -0.339844 27.234375 -1.703125 C 27.574219 -2.210938 28.59375 -5.617188 30.125 -11.914062 L 35.234375 -32.851562 L 52.082031 -2.042969 C 59.230469 11.0625 59.230469 11.0625 61.785156 11.0625 C 64.339844 11.0625 69.613281 9.019531 74.722656 5.957031 C 79.65625 3.0625 82.039062 0.339844 82.039062 -2.210938 C 82.039062 -4.253906 82.039062 -4.253906 77.785156 -11.402344 Z M 29.277344 -84.933594 C 36.765625 -86.804688 41.871094 -87.488281 46.808594 -87.488281 C 55.65625 -87.488281 62.125 -82.71875 62.125 -76.253906 C 62.125 -67.914062 52.59375 -59.230469 43.234375 -59.230469 L 42.382812 -59.230469 L 42.722656 -60.59375 C 45.785156 -69.953125 46.808594 -73.699219 46.808594 -76.421875 C 46.808594 -80.335938 44.425781 -81.871094 36.253906 -83.570312 C 34.550781 -83.910156 32.851562 -84.082031 31.316406 -84.421875 Z M 29.277344 -84.933594 "/></g></g></g><g fill="#000000" fill-opacity="1"><g transform="translate(337.646351, 419.475325)"><g><path d="M 10.210938 -48.507812 C 6.808594 -36.425781 4.59375 -26.382812 4.59375 -22.46875 C 4.59375 -18.550781 5.957031 -16.339844 13.277344 -8.171875 C 19.742188 -1.019531 20.59375 -0.511719 26.210938 -0.511719 C 37.617188 -0.511719 49.019531 -4.253906 60.59375 -11.746094 C 79.488281 -24.167969 92.421875 -47.488281 92.421875 -69.273438 C 92.421875 -97.1875 73.53125 -114.890625 43.742188 -114.890625 C 33.871094 -114.890625 21.445312 -112.335938 17.191406 -109.441406 C 14.808594 -107.910156 14.808594 -107.910156 10.894531 -93.273438 C 8.851562 -85.785156 8.851562 -85.785156 8.851562 -84.933594 C 8.851562 -83.402344 9.703125 -82.378906 10.894531 -82.378906 C 11.914062 -82.378906 13.445312 -82.71875 15.660156 -83.742188 C 17.191406 -84.421875 18.382812 -84.933594 18.722656 -85.101562 C 18.894531 -85.101562 19.742188 -85.445312 20.59375 -85.785156 Z M 45.617188 -70.976562 C 46.976562 -76.082031 47.316406 -77.953125 47.316406 -79.488281 C 47.316406 -83.570312 41.53125 -86.636719 30.46875 -88.679688 C 33.871094 -89.527344 35.574219 -89.699219 38.808594 -89.699219 C 53.957031 -89.699219 63.488281 -81.019531 63.488281 -67.0625 C 63.488281 -49.191406 50.382812 -32.339844 35.234375 -30.808594 Z M 45.617188 -70.976562 "/></g></g></g><g fill="#000000" fill-opacity="1"><g transform="translate(433.300768, 419.475325)"><g><path d="M 78.804688 -94.804688 C 82.039062 -101.101562 82.550781 -102.464844 82.550781 -104.847656 C 82.550781 -107.058594 81.359375 -108.59375 78.804688 -109.785156 C 74.550781 -111.824219 67.742188 -113.359375 62.976562 -113.359375 C 57.699219 -113.359375 54.804688 -108.933594 46.296875 -89.1875 L 40.679688 -75.742188 C 40.507812 -75.570312 40 -74.378906 39.148438 -72.679688 C 39.316406 -75.570312 39.316406 -76.933594 39.316406 -78.804688 C 39.316406 -91.742188 37.445312 -106.71875 35.402344 -109.273438 C 33.871094 -111.316406 24 -113.699219 17.359375 -113.699219 C 12.425781 -113.699219 10.210938 -111.484375 10.210938 -106.71875 C 10.210938 -104.847656 10.210938 -104.847656 11.574219 -96.847656 L 14.296875 -79.828125 C 14.296875 -79.828125 16.339844 -68.421875 18.210938 -58.210938 C 19.742188 -49.359375 20.253906 -46.125 21.105469 -40.851562 C 16.679688 -31.660156 12.9375 -23.660156 9.53125 -17.359375 C 6.976562 -12.765625 6.296875 -10.722656 6.296875 -9.019531 C 6.296875 -6.636719 8.171875 -5.277344 13.617188 -3.402344 C 18.550781 -1.53125 22.296875 -0.851562 26.210938 -0.851562 C 30.808594 -0.851562 32.679688 -2.554688 36.59375 -10.382812 Z M 78.804688 -94.804688 "/></g></g></g><g fill="#000000" fill-opacity="1"><g transform="translate(506.658518, 419.475325)"><g><path d="M 38.976562 -66.210938 C 42.550781 -39.660156 42.550781 -39.660156 45.617188 -22.808594 C 48.167969 -8.171875 48.507812 -7.320312 51.742188 -5.445312 C 56 -3.0625 63.316406 -1.191406 68.933594 -1.191406 C 75.570312 -1.191406 78.296875 -2.554688 78.296875 -5.957031 C 78.296875 -6.46875 78.296875 -7.148438 78.125 -7.488281 C 77.445312 -10.210938 77.445312 -10.210938 77.445312 -10.894531 C 77.445312 -11.574219 77.785156 -12.9375 78.125 -14.296875 C 86.292969 -39.488281 100.933594 -96.507812 100.933594 -103.484375 C 100.933594 -106.210938 99.742188 -107.742188 95.484375 -109.613281 C 90.210938 -111.824219 85.785156 -113.015625 81.359375 -113.015625 C 76.421875 -113.015625 76.082031 -112.675781 72.679688 -99.402344 C 68.421875 -82.890625 65.871094 -70.125 64.339844 -57.359375 C 63.148438 -72.167969 61.957031 -79.65625 59.402344 -89.699219 C 56.167969 -101.785156 53.957031 -105.527344 48.679688 -108.421875 C 43.402344 -111.144531 35.574219 -113.359375 30.808594 -113.359375 C 27.0625 -113.359375 25.019531 -111.144531 23.316406 -105.1875 C 14.296875 -75.0625 11.0625 -62.636719 2.210938 -27.574219 C 0.851562 -22.46875 -0.679688 -16.511719 -1.53125 -12.765625 C -2.042969 -11.402344 -2.210938 -10.042969 -2.210938 -9.019531 C -2.210938 -6.636719 -0.679688 -4.9375 2.894531 -3.402344 C 6.636719 -1.871094 12.085938 -0.679688 16.339844 -0.679688 C 22.976562 -0.679688 24.511719 -2.382812 26.722656 -12.085938 C 27.402344 -15.828125 28.765625 -21.277344 30.46875 -27.742188 C 36.933594 -52.59375 37.273438 -54.976562 38.464844 -69.445312 Z M 38.976562 -66.210938 "/></g></g></g><g fill="#000000" fill-opacity="1"><g transform="translate(606.397845, 419.475325)"><g/></g></g><g fill="#000000" fill-opacity="1"><g transform="translate(648.948746, 419.475325)"><g><path d="M 10.722656 -55.148438 C 5.957031 -55.148438 3.574219 -54.296875 2.210938 -52.253906 C -0.679688 -47.828125 -3.914062 -34.210938 -3.914062 -26.722656 C -3.914062 -11.574219 8.511719 -0.851562 26.550781 -0.851562 C 35.402344 -0.851562 43.742188 -3.746094 49.699219 -8.851562 C 56.507812 -14.808594 60.253906 -22.46875 64.507812 -39.660156 C 69.785156 -60.59375 73.53125 -74.890625 77.445312 -89.019531 C 79.65625 -97.1875 81.019531 -102.804688 81.019531 -104.335938 C 81.019531 -107.230469 79.65625 -109.101562 76.59375 -110.292969 C 72.507812 -112.167969 66.890625 -113.359375 62.296875 -113.359375 C 55.488281 -113.359375 53.785156 -110.976562 50.382812 -97.359375 C 50.382812 -96.335938 47.488281 -85.953125 44.765625 -76.253906 C 41.699219 -65.871094 39.316406 -56.679688 37.273438 -48.679688 C 34.722656 -39.148438 33.191406 -33.871094 32.339844 -31.488281 C 31.316406 -28.765625 29.105469 -27.0625 26.722656 -27.0625 C 24.511719 -27.0625 22.808594 -28.933594 22.808594 -31.660156 C 22.808594 -33.359375 23.316406 -35.914062 25.019531 -41.359375 C 26.210938 -45.273438 26.722656 -47.488281 26.722656 -49.019531 C 26.722656 -50.550781 26.382812 -51.230469 25.53125 -52.082031 C 23.660156 -53.613281 16.511719 -55.148438 10.722656 -55.148438 Z M 10.722656 -55.148438 "/></g></g></g><g fill="#000000" fill-opacity="1"><g transform="translate(727.072217, 419.475325)"><g><path d="M 75.570312 -83.742188 C 79.144531 -83.742188 80.847656 -84.761719 82.378906 -87.996094 C 84.59375 -92.761719 87.316406 -102.976562 87.316406 -107.058594 C 87.316406 -110.632812 85.613281 -111.65625 78.125 -111.824219 C 77.445312 -111.824219 73.699219 -111.996094 69.613281 -112.335938 C 57.019531 -113.015625 49.871094 -113.1875 42.042969 -113.1875 C 24.167969 -113.1875 21.445312 -112.847656 19.742188 -110.976562 C 17.871094 -108.933594 12.9375 -92.761719 12.9375 -88.847656 C 12.9375 -86.125 15.148438 -85.101562 21.445312 -85.101562 L 16.679688 -67.914062 C 10.722656 -67.914062 10.042969 -67.742188 8.511719 -65.359375 C 6.128906 -61.613281 3.402344 -50.550781 3.402344 -45.273438 C 3.402344 -42.382812 4.59375 -41.359375 8.511719 -40.851562 L 4.425781 -23.148438 C 3.574219 -19.402344 3.574219 -19.402344 3.574219 -18.042969 C 3.574219 -14.636719 5.957031 -10.210938 10.042969 -5.277344 C 13.617188 -1.019531 15.828125 -0.511719 27.0625 -0.511719 L 36.425781 -0.511719 L 52.421875 -0.171875 C 56 -0.171875 57.871094 -0.851562 59.402344 -2.382812 C 62.125 -5.277344 65.1875 -15.320312 65.1875 -20.933594 C 65.1875 -23.316406 64.167969 -25.019531 62.464844 -25.359375 C 60.59375 -25.871094 56.679688 -26.042969 45.273438 -26.210938 C 38.464844 -26.210938 36.59375 -26.210938 33.359375 -26.382812 L 36.765625 -40.851562 C 40.679688 -40.851562 52.421875 -40.507812 59.574219 -40 L 63.828125 -39.828125 C 67.402344 -39.828125 68.761719 -41.191406 70.976562 -46.464844 C 73.359375 -52.082031 75.402344 -59.742188 75.402344 -63.316406 C 75.402344 -66.890625 74.210938 -67.230469 53.105469 -67.742188 L 46.808594 -67.914062 L 45.273438 -67.914062 C 46.464844 -71.316406 47.65625 -76.59375 47.65625 -77.785156 C 47.65625 -79.488281 46.808594 -80.167969 40.339844 -83.402344 C 39.828125 -83.570312 38.296875 -84.253906 36.765625 -85.101562 C 49.699219 -84.761719 60.421875 -84.421875 69.105469 -83.910156 Z M 75.570312 -83.742188 "/></g></g></g><g fill="#000000" fill-opacity="1"><g transform="translate(808.769966, 419.475325)"><g><path d="M 38.976562 -66.210938 C 42.550781 -39.660156 42.550781 -39.660156 45.617188 -22.808594 C 48.167969 -8.171875 48.507812 -7.320312 51.742188 -5.445312 C 56 -3.0625 63.316406 -1.191406 68.933594 -1.191406 C 75.570312 -1.191406 78.296875 -2.554688 78.296875 -5.957031 C 78.296875 -6.46875 78.296875 -7.148438 78.125 -7.488281 C 77.445312 -10.210938 77.445312 -10.210938 77.445312 -10.894531 C 77.445312 -11.574219 77.785156 -12.9375 78.125 -14.296875 C 86.292969 -39.488281 100.933594 -96.507812 100.933594 -103.484375 C 100.933594 -106.210938 99.742188 -107.742188 95.484375 -109.613281 C 90.210938 -111.824219 85.785156 -113.015625 81.359375 -113.015625 C 76.421875 -113.015625 76.082031 -112.675781 72.679688 -99.402344 C 68.421875 -82.890625 65.871094 -70.125 64.339844 -57.359375 C 63.148438 -72.167969 61.957031 -79.65625 59.402344 -89.699219 C 56.167969 -101.785156 53.957031 -105.527344 48.679688 -108.421875 C 43.402344 -111.144531 35.574219 -113.359375 30.808594 -113.359375 C 27.0625 -113.359375 25.019531 -111.144531 23.316406 -105.1875 C 14.296875 -75.0625 11.0625 -62.636719 2.210938 -27.574219 C 0.851562 -22.46875 -0.679688 -16.511719 -1.53125 -12.765625 C -2.042969 -11.402344 -2.210938 -10.042969 -2.210938 -9.019531 C -2.210938 -6.636719 -0.679688 -4.9375 2.894531 -3.402344 C 6.636719 -1.871094 12.085938 -0.679688 16.339844 -0.679688 C 22.976562 -0.679688 24.511719 -2.382812 26.722656 -12.085938 C 27.402344 -15.828125 28.765625 -21.277344 30.46875 -27.742188 C 36.933594 -52.59375 37.273438 -54.976562 38.464844 -69.445312 Z M 38.976562 -66.210938 "/></g></g></g><g fill="#000000" fill-opacity="1"><g transform="translate(908.509247, 419.475325)"><g><path d="M 50.210938 -83.910156 C 50.210938 -80.507812 51.0625 -80.167969 59.914062 -80.167969 C 69.273438 -80.167969 72.679688 -81.527344 74.378906 -85.953125 C 76.253906 -90.71875 77.953125 -99.910156 77.953125 -104.847656 C 77.953125 -107.402344 77.273438 -109.101562 75.742188 -110.292969 C 73.1875 -112.335938 66.039062 -113.867188 58.890625 -113.867188 C 32.679688 -113.867188 11.234375 -98.039062 11.234375 -78.636719 C 11.234375 -72.167969 13.105469 -67.742188 20.59375 -55.65625 C 27.234375 -45.105469 29.957031 -38.808594 29.957031 -34.382812 C 29.957031 -30.46875 26.894531 -28.085938 22.125 -28.085938 C 21.277344 -28.085938 20.765625 -28.085938 19.574219 -28.253906 C 20.085938 -31.828125 20.253906 -33.53125 20.253906 -34.890625 C 20.253906 -36.765625 19.914062 -37.617188 19.234375 -38.125 C 17.871094 -38.808594 12.085938 -39.488281 7.148438 -39.488281 C 2.210938 -39.488281 -0.511719 -38.296875 -1.871094 -35.574219 C -3.914062 -31.488281 -7.320312 -15.828125 -7.320312 -10.210938 C -7.320312 -7.660156 -6.46875 -5.445312 -4.59375 -3.746094 C -2.042969 -1.191406 5.785156 0.171875 16.851562 0.171875 C 27.914062 0.171875 36.933594 -2.042969 43.574219 -6.46875 C 52.59375 -12.425781 58.382812 -23.488281 58.382812 -35.234375 C 58.382812 -45.957031 54.976562 -55.316406 46.125 -68.933594 C 42.722656 -74.378906 41.359375 -77.445312 41.359375 -79.996094 C 41.359375 -83.742188 43.914062 -85.613281 50.382812 -86.292969 Z M 50.210938 -83.910156 "/></g></g></g><g fill="#000000" fill-opacity="1"><g transform="translate(978.462897, 419.475325)"><g><path d="M 75.570312 -83.742188 C 79.144531 -83.742188 80.847656 -84.761719 82.378906 -87.996094 C 84.59375 -92.761719 87.316406 -102.976562 87.316406 -107.058594 C 87.316406 -110.632812 85.613281 -111.65625 78.125 -111.824219 C 77.445312 -111.824219 73.699219 -111.996094 69.613281 -112.335938 C 57.019531 -113.015625 49.871094 -113.1875 42.042969 -113.1875 C 24.167969 -113.1875 21.445312 -112.847656 19.742188 -110.976562 C 17.871094 -108.933594 12.9375 -92.761719 12.9375 -88.847656 C 12.9375 -86.125 15.148438 -85.101562 21.445312 -85.101562 L 16.679688 -67.914062 C 10.722656 -67.914062 10.042969 -67.742188 8.511719 -65.359375 C 6.128906 -61.613281 3.402344 -50.550781 3.402344 -45.273438 C 3.402344 -42.382812 4.59375 -41.359375 8.511719 -40.851562 L 4.425781 -23.148438 C 3.574219 -19.402344 3.574219 -19.402344 3.574219 -18.042969 C 3.574219 -14.636719 5.957031 -10.210938 10.042969 -5.277344 C 13.617188 -1.019531 15.828125 -0.511719 27.0625 -0.511719 L 36.425781 -0.511719 L 52.421875 -0.171875 C 56 -0.171875 57.871094 -0.851562 59.402344 -2.382812 C 62.125 -5.277344 65.1875 -15.320312 65.1875 -20.933594 C 65.1875 -23.316406 64.167969 -25.019531 62.464844 -25.359375 C 60.59375 -25.871094 56.679688 -26.042969 45.273438 -26.210938 C 38.464844 -26.210938 36.59375 -26.210938 33.359375 -26.382812 L 36.765625 -40.851562 C 40.679688 -40.851562 52.421875 -40.507812 59.574219 -40 L 63.828125 -39.828125 C 67.402344 -39.828125 68.761719 -41.191406 70.976562 -46.464844 C 73.359375 -52.082031 75.402344 -59.742188 75.402344 -63.316406 C 75.402344 -66.890625 74.210938 -67.230469 53.105469 -67.742188 L 46.808594 -67.914062 L 45.273438 -67.914062 C 46.464844 -71.316406 47.65625 -76.59375 47.65625 -77.785156 C 47.65625 -79.488281 46.808594 -80.167969 40.339844 -83.402344 C 39.828125 -83.570312 38.296875 -84.253906 36.765625 -85.101562 C 49.699219 -84.761719 60.421875 -84.421875 69.105469 -83.910156 Z M 75.570312 -83.742188 "/></g></g></g><g fill="#000000" fill-opacity="1"><g transform="translate(1060.160647, 419.475325)"><g><path d="M 38.976562 -66.210938 C 42.550781 -39.660156 42.550781 -39.660156 45.617188 -22.808594 C 48.167969 -8.171875 48.507812 -7.320312 51.742188 -5.445312 C 56 -3.0625 63.316406 -1.191406 68.933594 -1.191406 C 75.570312 -1.191406 78.296875 -2.554688 78.296875 -5.957031 C 78.296875 -6.46875 78.296875 -7.148438 78.125 -7.488281 C 77.445312 -10.210938 77.445312 -10.210938 77.445312 -10.894531 C 77.445312 -11.574219 77.785156 -12.9375 78.125 -14.296875 C 86.292969 -39.488281 100.933594 -96.507812 100.933594 -103.484375 C 100.933594 -106.210938 99.742188 -107.742188 95.484375 -109.613281 C 90.210938 -111.824219 85.785156 -113.015625 81.359375 -113.015625 C 76.421875 -113.015625 76.082031 -112.675781 72.679688 -99.402344 C 68.421875 -82.890625 65.871094 -70.125 64.339844 -57.359375 C 63.148438 -72.167969 61.957031 -79.65625 59.402344 -89.699219 C 56.167969 -101.785156 53.957031 -105.527344 48.679688 -108.421875 C 43.402344 -111.144531 35.574219 -113.359375 30.808594 -113.359375 C 27.0625 -113.359375 25.019531 -111.144531 23.316406 -105.1875 C 14.296875 -75.0625 11.0625 -62.636719 2.210938 -27.574219 C 0.851562 -22.46875 -0.679688 -16.511719 -1.53125 -12.765625 C -2.042969 -11.402344 -2.210938 -10.042969 -2.210938 -9.019531 C -2.210938 -6.636719 -0.679688 -4.9375 2.894531 -3.402344 C 6.636719 -1.871094 12.085938 -0.679688 16.339844 -0.679688 C 22.976562 -0.679688 24.511719 -2.382812 26.722656 -12.085938 C 27.402344 -15.828125 28.765625 -21.277344 30.46875 -27.742188 C 36.933594 -52.59375 37.273438 -54.976562 38.464844 -69.445312 Z M 38.976562 -66.210938 "/></g></g></g><g clip-path="url(#d32888c3cd)"><path fill="#000000" d="M 1219.402344 228.875 L 1219.402344 346.910156 L 1193.550781 346.910156 L 1193.550781 256.605469 L 977.34375 256.605469 L 977.34375 228.875 Z M 1219.402344 228.875 " fill-opacity="1" fill-rule="nonzero"/></g><g clip-path="url(#59965eb66e)"><path fill="#000000" d="M 10.03125 492.316406 L 10.03125 382.675781 L 34.050781 382.675781 L 34.050781 466.558594 L 234.882812 466.558594 L 234.882812 492.316406 Z M 10.03125 492.316406 " fill-opacity="1" fill-rule="nonzero"/></g></svg>