<svg xmlns="http://www.w3.org/2000/svg" xmlns:xlink="http://www.w3.org/1999/xlink" width="500" zoomAndPan="magnify" viewBox="0 0 375 374.999991" height="500" preserveAspectRatio="xMidYMid meet" version="1.0"><defs><g/></defs><g fill="#000000" fill-opacity="1"><g transform="translate(11.988285, 257.475393)"><g><path d="M 24.652344 -9.753906 C 23.445312 -8.257812 22.117188 -6.890625 20.667969 -5.683594 C 19.214844 -4.480469 17.636719 -3.484375 15.976562 -2.78125 C 14.316406 -2.074219 12.65625 -1.703125 11.039062 -1.742188 C 9.378906 -1.785156 8.007812 -2.199219 6.890625 -3.070312 C 5.769531 -3.984375 5.1875 -5.1875 5.105469 -6.722656 C 5.019531 -8.257812 5.394531 -9.835938 6.226562 -11.414062 C 7.054688 -13.03125 8.175781 -14.441406 9.542969 -15.6875 C 10.914062 -16.972656 12.449219 -18.011719 14.152344 -18.800781 C 15.8125 -19.585938 17.511719 -20.210938 19.253906 -20.582031 C 20.957031 -20.957031 22.699219 -21.164062 24.441406 -21.246094 C 26.890625 -21.414062 29.382812 -21.496094 31.828125 -21.496094 L 30.75 -19.171875 C 29.089844 -15.851562 27.058594 -12.699219 24.652344 -9.753906 Z M 45.441406 -22.660156 L 38.304688 -22.742188 C 37.265625 -22.78125 36.1875 -22.78125 35.148438 -22.78125 L 33.863281 -22.78125 C 34.734375 -24.941406 35.523438 -27.097656 36.144531 -29.257812 C 37.183594 -32.785156 37.722656 -36.269531 37.847656 -39.714844 C 37.886719 -41.417969 37.765625 -43.117188 37.433594 -44.734375 C 37.140625 -46.355469 36.519531 -47.847656 35.566406 -49.175781 C 34.609375 -50.503906 33.324219 -51.417969 31.621094 -51.957031 C 29.921875 -52.414062 28.09375 -52.453125 26.1875 -52.039062 C 24.320312 -51.667969 22.449219 -51.042969 20.625 -50.214844 C 18.839844 -49.382812 17.097656 -48.429688 15.394531 -47.390625 C 11.953125 -45.316406 8.839844 -42.742188 6.140625 -39.671875 C 3.402344 -36.5625 1.578125 -33.117188 0.664062 -29.382812 C 0.207031 -27.515625 0.289062 -25.769531 0.871094 -24.152344 C 1.160156 -23.324219 1.703125 -22.660156 2.40625 -22.117188 C 3.113281 -21.578125 3.984375 -21.332031 5.019531 -21.332031 C 5.230469 -21.371094 5.4375 -21.453125 5.601562 -21.578125 C 5.769531 -21.703125 5.894531 -21.871094 5.933594 -22.078125 C 5.976562 -22.285156 5.976562 -22.492188 5.894531 -22.617188 C 5.769531 -22.742188 5.601562 -22.824219 5.394531 -22.824219 C 4.648438 -22.824219 4.027344 -23.03125 3.484375 -23.40625 C 2.945312 -23.777344 2.574219 -24.320312 2.28125 -24.941406 C 1.824219 -26.308594 1.785156 -27.804688 2.15625 -29.464844 C 2.945312 -32.824219 4.648438 -35.980469 7.222656 -38.925781 C 9.753906 -41.789062 12.65625 -44.195312 15.976562 -46.230469 C 19.253906 -48.347656 22.617188 -49.796875 26.0625 -50.628906 C 27.804688 -51.003906 29.382812 -50.960938 30.832031 -50.546875 C 32.285156 -50.089844 33.40625 -49.300781 34.277344 -48.140625 C 35.066406 -46.933594 35.648438 -45.609375 35.9375 -44.070312 C 36.230469 -42.578125 36.351562 -41 36.3125 -39.339844 C 36.1875 -36.0625 35.648438 -32.703125 34.652344 -29.296875 C 34.027344 -27.097656 33.28125 -24.941406 32.410156 -22.824219 C 29.878906 -22.824219 27.304688 -22.742188 24.734375 -22.617188 C 21.121094 -22.574219 17.472656 -21.703125 13.777344 -20.042969 C 11.953125 -19.171875 10.25 -18.050781 8.671875 -16.640625 C 7.097656 -15.230469 5.851562 -13.613281 4.898438 -11.785156 C 3.941406 -9.917969 3.484375 -8.09375 3.570312 -6.265625 C 3.695312 -4.398438 4.441406 -2.945312 5.726562 -1.824219 C 7.097656 -0.789062 8.757812 -0.289062 10.625 -0.289062 C 12.492188 -0.25 14.359375 -0.621094 16.269531 -1.453125 C 18.136719 -2.242188 19.878906 -3.320312 21.453125 -4.6875 C 23.03125 -6.015625 24.441406 -7.46875 25.730469 -9.003906 C 28.261719 -12.117188 30.378906 -15.394531 32.078125 -18.839844 C 32.535156 -19.710938 32.949219 -20.625 33.324219 -21.496094 L 35.980469 -21.496094 C 39.007812 -21.453125 42.078125 -21.453125 45.152344 -21.496094 C 45.316406 -21.496094 45.484375 -21.539062 45.609375 -21.664062 C 45.730469 -21.785156 45.855469 -21.910156 45.898438 -22.078125 C 45.9375 -22.242188 45.898438 -22.367188 45.816406 -22.492188 C 45.730469 -22.617188 45.609375 -22.660156 45.441406 -22.660156 Z M 45.441406 -22.660156 "/></g></g></g><g fill="#000000" fill-opacity="1"><g transform="translate(56.638276, 257.475393)"><g><path d="M 0.871094 -20.542969 C 0.746094 -20.128906 0.746094 -19.753906 0.871094 -19.378906 C 1.078125 -18.800781 1.492188 -18.507812 2.074219 -18.507812 C 2.78125 -18.507812 3.445312 -18.757812 3.984375 -19.214844 C 4.109375 -19.339844 4.234375 -19.503906 4.355469 -19.628906 C 3.484375 -19.671875 2.738281 -19.796875 2.15625 -19.960938 C 1.617188 -20.128906 1.203125 -20.335938 0.871094 -20.542969 Z M 1.578125 -22.203125 C 1.785156 -21.828125 2.242188 -21.578125 2.90625 -21.371094 C 3.445312 -21.246094 4.148438 -21.121094 5.019531 -21.082031 C 5.1875 -21.746094 5.144531 -22.328125 4.855469 -22.867188 C 4.566406 -23.40625 3.984375 -23.65625 3.113281 -23.65625 C 2.699219 -23.65625 2.367188 -23.570312 2.074219 -23.40625 C 1.785156 -23.238281 1.578125 -23.03125 1.492188 -22.824219 C 1.453125 -22.660156 1.453125 -22.492188 1.492188 -22.367188 Z M 1.660156 -17.054688 C 0.582031 -17.054688 -0.164062 -17.59375 -0.582031 -18.632812 C -0.871094 -19.671875 -0.707031 -20.707031 -0.0429688 -21.785156 C -0.125 -22.203125 -0.0820312 -22.617188 0.0820312 -22.992188 C 0.375 -23.613281 0.828125 -24.152344 1.453125 -24.566406 C 2.074219 -24.941406 2.738281 -25.148438 3.484375 -25.148438 C 4.8125 -25.148438 5.726562 -24.734375 6.183594 -23.902344 C 6.640625 -23.074219 6.765625 -22.117188 6.515625 -21.039062 C 8.714844 -21.082031 11.164062 -21.289062 13.820312 -21.746094 C 16.476562 -22.203125 18.800781 -22.824219 20.789062 -23.613281 C 21 -23.695312 21.164062 -23.695312 21.371094 -23.65625 C 21.539062 -23.613281 21.621094 -23.488281 21.664062 -23.28125 C 21.703125 -23.074219 21.664062 -22.90625 21.539062 -22.742188 C 21.414062 -22.535156 21.289062 -22.410156 21.082031 -22.285156 C 18.964844 -21.414062 16.476562 -20.75 13.695312 -20.292969 C 10.914062 -19.835938 8.339844 -19.585938 5.976562 -19.585938 L 5.894531 -19.585938 C 5.601562 -19.089844 5.269531 -18.632812 4.8125 -18.257812 C 3.859375 -17.472656 2.820312 -17.054688 1.660156 -17.054688 Z M 1.660156 -17.054688 "/></g></g></g><g fill="#000000" fill-opacity="1"><g transform="translate(76.97145, 257.475393)"><g><path d="M 0.0429688 -17.015625 C -0.25 -17.015625 -0.457031 -17.140625 -0.621094 -17.347656 C -1.078125 -17.925781 -0.789062 -20.003906 0.25 -23.570312 L 0.375 -24.070312 C 0.414062 -24.277344 0.539062 -24.484375 0.746094 -24.609375 C 0.914062 -24.734375 1.121094 -24.816406 1.328125 -24.816406 C 1.535156 -24.816406 1.660156 -24.734375 1.785156 -24.609375 C 1.867188 -24.484375 1.867188 -24.277344 1.824219 -24.070312 L 1.703125 -23.570312 C 1.535156 -22.992188 1.328125 -22.242188 1.121094 -21.332031 C 0.914062 -20.375 0.746094 -19.585938 0.664062 -18.964844 C 0.996094 -19.421875 1.328125 -19.878906 1.660156 -20.417969 C 2.117188 -21.121094 2.613281 -21.871094 3.152344 -22.574219 C 3.695312 -23.28125 4.234375 -23.902344 4.855469 -24.402344 C 5.4375 -24.898438 6.058594 -25.148438 6.722656 -25.148438 C 7.179688 -25.148438 7.554688 -25.066406 7.84375 -24.859375 C 8.132812 -24.652344 8.339844 -24.402344 8.546875 -24.109375 C 8.757812 -23.902344 9.003906 -23.65625 9.296875 -23.445312 C 9.585938 -23.199219 9.960938 -22.992188 10.457031 -22.78125 C 11.246094 -22.535156 12.738281 -22.449219 14.855469 -22.492188 C 16.972656 -22.535156 19.132812 -22.78125 21.414062 -23.238281 C 21.621094 -23.28125 21.828125 -23.238281 21.953125 -23.15625 C 22.078125 -23.03125 22.160156 -22.867188 22.160156 -22.660156 C 22.117188 -22.449219 22.035156 -22.285156 21.910156 -22.117188 C 21.746094 -21.953125 21.578125 -21.828125 21.371094 -21.785156 C 19.046875 -21.332031 16.765625 -21.039062 14.484375 -21 C 12.199219 -20.957031 10.625 -21.082031 9.667969 -21.371094 C 9.046875 -21.621094 8.546875 -21.910156 8.175781 -22.203125 C 7.800781 -22.492188 7.511719 -22.742188 7.304688 -23.03125 C 7.097656 -23.238281 6.972656 -23.40625 6.847656 -23.53125 C 6.722656 -23.613281 6.558594 -23.65625 6.347656 -23.65625 C 5.851562 -23.65625 5.269531 -23.238281 4.648438 -22.410156 C 3.984375 -21.539062 3.402344 -20.707031 2.90625 -19.917969 C 2.367188 -19.046875 1.867188 -18.34375 1.410156 -17.804688 C 0.953125 -17.261719 0.496094 -17.015625 0.0429688 -17.015625 Z M 0.0429688 -17.015625 "/></g></g></g><g fill="#000000" fill-opacity="1"><g transform="translate(97.719588, 257.475393)"><g><path d="M 3.238281 -23.65625 C 2.988281 -23.65625 2.738281 -23.570312 2.53125 -23.445312 C 1.910156 -23.074219 1.453125 -22.535156 1.078125 -21.746094 C 0.707031 -20.957031 0.496094 -20.210938 0.496094 -19.503906 C 0.496094 -19.296875 0.539062 -19.046875 0.664062 -18.800781 C 0.746094 -18.550781 0.914062 -18.425781 1.203125 -18.425781 C 1.371094 -18.425781 1.617188 -18.507812 1.949219 -18.714844 C 2.242188 -18.921875 2.65625 -19.339844 3.195312 -19.960938 C 3.695312 -20.582031 4.316406 -21.453125 5.105469 -22.617188 C 4.898438 -22.867188 4.605469 -23.113281 4.273438 -23.324219 C 3.941406 -23.53125 3.609375 -23.65625 3.238281 -23.65625 Z M 7.054688 -18.382812 C 6.515625 -19.132812 6.265625 -20.335938 6.308594 -21.996094 C 4.109375 -18.632812 2.28125 -16.929688 0.828125 -16.929688 C -0.289062 -16.929688 -0.914062 -17.679688 -0.996094 -19.132812 C -0.996094 -20.085938 -0.707031 -21.121094 -0.164062 -22.242188 C 0.375 -23.324219 1.121094 -24.152344 2.074219 -24.691406 C 2.574219 -24.980469 3.152344 -25.105469 3.859375 -25.105469 C 4.523438 -25.105469 5.230469 -24.773438 6.015625 -24.070312 C 6.226562 -24.441406 6.472656 -24.859375 6.722656 -25.3125 C 7.386719 -28.71875 8.671875 -33.863281 10.625 -40.753906 C 11.246094 -43.035156 11.953125 -45.523438 12.65625 -48.261719 C 12.699219 -48.472656 12.824219 -48.636719 13.03125 -48.761719 C 13.195312 -48.886719 13.402344 -48.96875 13.613281 -48.96875 C 13.820312 -48.96875 13.945312 -48.886719 14.066406 -48.761719 C 14.152344 -48.636719 14.191406 -48.472656 14.152344 -48.261719 C 13.402344 -45.523438 12.699219 -42.992188 12.078125 -40.710938 C 10.292969 -34.359375 9.089844 -29.503906 8.382812 -26.101562 C 7.675781 -22.660156 7.675781 -20.460938 8.382812 -19.421875 C 8.796875 -18.800781 9.710938 -18.507812 11.082031 -18.507812 C 12.324219 -18.507812 13.613281 -18.757812 14.898438 -19.296875 C 16.183594 -19.835938 17.386719 -20.460938 18.507812 -21.164062 C 19.628906 -21.871094 20.625 -22.492188 21.453125 -23.074219 C 21.496094 -23.113281 21.496094 -23.113281 21.539062 -23.113281 C 21.746094 -23.28125 21.953125 -23.445312 22.160156 -23.570312 C 22.367188 -23.695312 22.535156 -23.738281 22.742188 -23.738281 C 22.949219 -23.695312 23.074219 -23.613281 23.15625 -23.445312 C 23.238281 -23.324219 23.238281 -23.15625 23.199219 -22.949219 C 23.113281 -22.742188 22.992188 -22.574219 22.78125 -22.449219 C 22.574219 -22.328125 22.367188 -22.160156 22.160156 -21.996094 C 22.117188 -21.996094 22.117188 -21.996094 22.117188 -21.953125 C 21.207031 -21.332031 20.128906 -20.625 18.921875 -19.878906 C 17.71875 -19.089844 16.390625 -18.425781 14.980469 -17.886719 C 13.570312 -17.304688 12.117188 -17.015625 10.664062 -17.015625 C 8.878906 -17.015625 7.675781 -17.472656 7.054688 -18.382812 Z M 7.054688 -18.382812 "/></g></g></g><g fill="#000000" fill-opacity="1"><g transform="translate(119.754109, 257.475393)"><g><path d="M 9.421875 -12.988281 C 5.144531 -9.503906 1.824219 -5.976562 -0.457031 -2.449219 C -2.738281 1.121094 -4.027344 4.066406 -4.316406 6.390625 C -4.355469 6.847656 -4.355469 7.304688 -4.316406 7.84375 C -4.273438 8.382812 -4.148438 8.878906 -3.859375 9.253906 C -3.609375 9.667969 -3.152344 9.875 -2.488281 9.875 C -1.492188 9.875 -0.582031 9.542969 0.289062 8.839844 C 2.15625 7.222656 3.859375 4.480469 5.3125 0.539062 C 6.765625 -3.402344 8.132812 -7.886719 9.421875 -12.988281 Z M 13.238281 -25.023438 C 13.734375 -24.941406 13.945312 -24.734375 13.859375 -24.402344 C 13.320312 -22.242188 12.738281 -20.085938 12.199219 -17.96875 L 11.785156 -16.390625 C 16.269531 -19.464844 21.664062 -21.871094 27.929688 -23.613281 C 28.136719 -23.65625 28.34375 -23.65625 28.511719 -23.570312 C 28.632812 -23.445312 28.71875 -23.324219 28.71875 -23.113281 C 28.71875 -22.90625 28.632812 -22.742188 28.511719 -22.574219 C 28.386719 -22.367188 28.179688 -22.242188 27.96875 -22.203125 C 21.371094 -20.335938 15.8125 -17.71875 11.246094 -14.359375 C 9.792969 -8.671875 8.300781 -3.652344 6.722656 0.621094 C 5.144531 4.9375 3.277344 8.007812 1.078125 9.875 C -0.207031 10.871094 -1.535156 11.371094 -2.90625 11.371094 C -5.105469 11.371094 -6.101562 9.792969 -5.808594 6.597656 C -5.519531 3.902344 -4.027344 0.539062 -1.410156 -3.484375 C 1.203125 -7.46875 4.980469 -11.328125 10 -15.105469 C 10.207031 -16.058594 10.457031 -16.972656 10.707031 -17.925781 C 11.082031 -19.339844 11.453125 -20.75 11.828125 -22.160156 C 10.832031 -21.164062 9.835938 -20.335938 8.921875 -19.671875 C 7.46875 -18.675781 6.140625 -18.011719 4.980469 -17.636719 C 3.816406 -17.261719 2.90625 -17.097656 2.28125 -17.097656 C 2.035156 -17.097656 1.824219 -17.097656 1.703125 -17.140625 C -0.582031 -17.511719 -0.953125 -19.960938 0.582031 -24.441406 C 0.664062 -24.652344 0.789062 -24.859375 0.996094 -24.980469 C 1.160156 -25.105469 1.371094 -25.148438 1.578125 -25.105469 C 1.785156 -25.105469 1.910156 -25.023438 1.992188 -24.898438 C 2.074219 -24.734375 2.074219 -24.527344 2.035156 -24.320312 C 1.578125 -22.992188 1.328125 -21.953125 1.246094 -21.207031 C 1.121094 -20.417969 1.160156 -19.878906 1.285156 -19.503906 C 1.410156 -19.132812 1.617188 -18.882812 1.824219 -18.757812 C 2.035156 -18.632812 2.199219 -18.589844 2.324219 -18.589844 C 2.863281 -18.382812 4.066406 -18.675781 5.933594 -19.421875 C 7.800781 -20.167969 9.960938 -21.953125 12.410156 -24.734375 C 12.617188 -24.980469 12.90625 -25.066406 13.238281 -25.023438 Z M 13.238281 -25.023438 "/></g></g></g><g fill="#000000" fill-opacity="1"><g transform="translate(146.80968, 257.475393)"><g><path d="M -0.582031 -17.015625 C -0.707031 -17.015625 -0.828125 -17.054688 -0.914062 -17.097656 C -1.039062 -17.179688 -1.121094 -17.304688 -1.160156 -17.472656 C -1.203125 -17.636719 -1.203125 -17.925781 -1.121094 -18.300781 C -1.078125 -18.675781 -0.914062 -19.253906 -0.707031 -20.003906 C -0.496094 -20.707031 -0.25 -21.664062 0.125 -22.867188 L 0.621094 -24.441406 C 0.664062 -24.652344 0.789062 -24.816406 0.996094 -24.941406 C 1.160156 -25.066406 1.328125 -25.148438 1.535156 -25.148438 C 1.742188 -25.105469 1.910156 -25.023438 2.035156 -24.898438 C 2.117188 -24.773438 2.117188 -24.566406 2.074219 -24.359375 L 1.578125 -22.78125 C 1.121094 -21.332031 0.789062 -20.085938 0.496094 -19.089844 C 0.582031 -19.132812 0.664062 -19.171875 0.746094 -19.214844 C 1.949219 -20.042969 3.277344 -20.914062 4.730469 -21.828125 C 6.183594 -22.699219 7.59375 -23.488281 8.964844 -24.152344 C 10.332031 -24.816406 11.535156 -25.148438 12.53125 -25.148438 C 13.070312 -25.148438 13.488281 -24.980469 13.777344 -24.691406 C 14.027344 -24.402344 14.191406 -23.988281 14.316406 -23.53125 C 14.398438 -23.074219 14.441406 -22.574219 14.484375 -22.117188 C 14.523438 -21.496094 14.648438 -20.914062 14.773438 -20.375 C 14.898438 -19.835938 15.148438 -19.378906 15.519531 -19.046875 C 15.894531 -18.675781 16.558594 -18.507812 17.429688 -18.507812 C 19.296875 -18.507812 21.039062 -18.921875 22.660156 -19.753906 C 24.277344 -20.542969 25.855469 -21.496094 27.429688 -22.574219 L 28.21875 -23.03125 C 28.425781 -23.15625 28.59375 -23.238281 28.800781 -23.199219 C 29.007812 -23.15625 29.132812 -23.074219 29.214844 -22.90625 C 29.296875 -22.742188 29.296875 -22.574219 29.214844 -22.367188 C 29.132812 -22.160156 29.007812 -21.996094 28.800781 -21.871094 L 28.054688 -21.414062 C 26.933594 -20.667969 25.8125 -19.960938 24.652344 -19.339844 C 23.488281 -18.675781 22.285156 -18.136719 21.039062 -17.71875 C 19.753906 -17.261719 18.425781 -17.054688 17.015625 -17.054688 C 15.8125 -17.054688 14.898438 -17.304688 14.359375 -17.804688 C 13.820312 -18.300781 13.445312 -18.882812 13.28125 -19.585938 C 13.113281 -20.292969 13.03125 -20.957031 12.988281 -21.621094 C 12.949219 -22.328125 12.863281 -22.867188 12.738281 -23.199219 C 12.617188 -23.488281 12.410156 -23.65625 12.117188 -23.65625 C 11.328125 -23.65625 10.292969 -23.324219 9.003906 -22.699219 C 7.71875 -22.078125 6.390625 -21.332031 5.019531 -20.460938 C 3.652344 -19.585938 2.40625 -18.800781 1.371094 -18.09375 C 0.828125 -17.761719 0.375 -17.472656 -0.0429688 -17.179688 C -0.25 -17.054688 -0.414062 -17.015625 -0.582031 -17.015625 Z M -0.582031 -17.015625 "/></g></g></g><g fill="#000000" fill-opacity="1"><g transform="translate(174.778169, 257.475393)"><g/></g></g><g fill="#000000" fill-opacity="1"><g transform="translate(196.107254, 257.475393)"><g><path d="M 24.652344 -9.753906 C 23.445312 -8.257812 22.117188 -6.890625 20.667969 -5.683594 C 19.214844 -4.480469 17.636719 -3.484375 15.976562 -2.78125 C 14.316406 -2.074219 12.65625 -1.703125 11.039062 -1.742188 C 9.378906 -1.785156 8.007812 -2.199219 6.890625 -3.070312 C 5.769531 -3.984375 5.1875 -5.1875 5.105469 -6.722656 C 5.019531 -8.257812 5.394531 -9.835938 6.226562 -11.414062 C 7.054688 -13.03125 8.175781 -14.441406 9.542969 -15.6875 C 10.914062 -16.972656 12.449219 -18.011719 14.152344 -18.800781 C 15.8125 -19.585938 17.511719 -20.210938 19.253906 -20.582031 C 20.957031 -20.957031 22.699219 -21.164062 24.441406 -21.246094 C 26.890625 -21.414062 29.382812 -21.496094 31.828125 -21.496094 L 30.75 -19.171875 C 29.089844 -15.851562 27.058594 -12.699219 24.652344 -9.753906 Z M 45.441406 -22.660156 L 38.304688 -22.742188 C 37.265625 -22.78125 36.1875 -22.78125 35.148438 -22.78125 L 33.863281 -22.78125 C 34.734375 -24.941406 35.523438 -27.097656 36.144531 -29.257812 C 37.183594 -32.785156 37.722656 -36.269531 37.847656 -39.714844 C 37.886719 -41.417969 37.765625 -43.117188 37.433594 -44.734375 C 37.140625 -46.355469 36.519531 -47.847656 35.566406 -49.175781 C 34.609375 -50.503906 33.324219 -51.417969 31.621094 -51.957031 C 29.921875 -52.414062 28.09375 -52.453125 26.1875 -52.039062 C 24.320312 -51.667969 22.449219 -51.042969 20.625 -50.214844 C 18.839844 -49.382812 17.097656 -48.429688 15.394531 -47.390625 C 11.953125 -45.316406 8.839844 -42.742188 6.140625 -39.671875 C 3.402344 -36.5625 1.578125 -33.117188 0.664062 -29.382812 C 0.207031 -27.515625 0.289062 -25.769531 0.871094 -24.152344 C 1.160156 -23.324219 1.703125 -22.660156 2.40625 -22.117188 C 3.113281 -21.578125 3.984375 -21.332031 5.019531 -21.332031 C 5.230469 -21.371094 5.4375 -21.453125 5.601562 -21.578125 C 5.769531 -21.703125 5.894531 -21.871094 5.933594 -22.078125 C 5.976562 -22.285156 5.976562 -22.492188 5.894531 -22.617188 C 5.769531 -22.742188 5.601562 -22.824219 5.394531 -22.824219 C 4.648438 -22.824219 4.027344 -23.03125 3.484375 -23.40625 C 2.945312 -23.777344 2.574219 -24.320312 2.28125 -24.941406 C 1.824219 -26.308594 1.785156 -27.804688 2.15625 -29.464844 C 2.945312 -32.824219 4.648438 -35.980469 7.222656 -38.925781 C 9.753906 -41.789062 12.65625 -44.195312 15.976562 -46.230469 C 19.253906 -48.347656 22.617188 -49.796875 26.0625 -50.628906 C 27.804688 -51.003906 29.382812 -50.960938 30.832031 -50.546875 C 32.285156 -50.089844 33.40625 -49.300781 34.277344 -48.140625 C 35.066406 -46.933594 35.648438 -45.609375 35.9375 -44.070312 C 36.230469 -42.578125 36.351562 -41 36.3125 -39.339844 C 36.1875 -36.0625 35.648438 -32.703125 34.652344 -29.296875 C 34.027344 -27.097656 33.28125 -24.941406 32.410156 -22.824219 C 29.878906 -22.824219 27.304688 -22.742188 24.734375 -22.617188 C 21.121094 -22.574219 17.472656 -21.703125 13.777344 -20.042969 C 11.953125 -19.171875 10.25 -18.050781 8.671875 -16.640625 C 7.097656 -15.230469 5.851562 -13.613281 4.898438 -11.785156 C 3.941406 -9.917969 3.484375 -8.09375 3.570312 -6.265625 C 3.695312 -4.398438 4.441406 -2.945312 5.726562 -1.824219 C 7.097656 -0.789062 8.757812 -0.289062 10.625 -0.289062 C 12.492188 -0.25 14.359375 -0.621094 16.269531 -1.453125 C 18.136719 -2.242188 19.878906 -3.320312 21.453125 -4.6875 C 23.03125 -6.015625 24.441406 -7.46875 25.730469 -9.003906 C 28.261719 -12.117188 30.378906 -15.394531 32.078125 -18.839844 C 32.535156 -19.710938 32.949219 -20.625 33.324219 -21.496094 L 35.980469 -21.496094 C 39.007812 -21.453125 42.078125 -21.453125 45.152344 -21.496094 C 45.316406 -21.496094 45.484375 -21.539062 45.609375 -21.664062 C 45.730469 -21.785156 45.855469 -21.910156 45.898438 -22.078125 C 45.9375 -22.242188 45.898438 -22.367188 45.816406 -22.492188 C 45.730469 -22.617188 45.609375 -22.660156 45.441406 -22.660156 Z M 45.441406 -22.660156 "/></g></g></g><g fill="#000000" fill-opacity="1"><g transform="translate(240.757245, 257.475393)"><g><path d="M 1.992188 -22.574219 C 4.273438 -22.285156 5.851562 -22.449219 6.640625 -23.03125 C 6.765625 -23.113281 6.847656 -23.199219 6.890625 -23.238281 C 6.929688 -23.28125 6.929688 -23.28125 6.929688 -23.324219 C 6.929688 -23.363281 6.847656 -23.445312 6.679688 -23.53125 C 6.515625 -23.613281 6.226562 -23.65625 5.808594 -23.65625 C 4.9375 -23.65625 4.191406 -23.570312 3.570312 -23.363281 C 2.945312 -23.15625 2.40625 -22.867188 1.992188 -22.574219 Z M 4.648438 -17.015625 L 4.148438 -17.015625 C 0.289062 -17.140625 -1.371094 -18.425781 -0.746094 -20.957031 C -0.621094 -21.539062 -0.25 -22.160156 0.289062 -22.78125 C 0.828125 -23.40625 1.617188 -23.988281 2.613281 -24.441406 C 3.570312 -24.898438 4.773438 -25.105469 6.183594 -25.105469 C 7.46875 -25.105469 8.21875 -24.734375 8.425781 -23.945312 C 8.546875 -23.40625 8.339844 -22.867188 7.800781 -22.328125 C 7.261719 -21.785156 6.433594 -21.414062 5.269531 -21.164062 C 4.066406 -20.875 2.574219 -20.914062 0.789062 -21.207031 L 0.707031 -20.957031 C 0.496094 -20.003906 0.828125 -19.339844 1.703125 -19.007812 C 2.53125 -18.632812 3.484375 -18.46875 4.566406 -18.46875 C 9.460938 -18.300781 15.023438 -19.878906 21.207031 -23.15625 C 21.414062 -23.28125 21.578125 -23.28125 21.785156 -23.238281 C 21.953125 -23.199219 22.078125 -23.074219 22.117188 -22.90625 C 22.160156 -22.699219 22.160156 -22.535156 22.078125 -22.367188 C 21.953125 -22.160156 21.828125 -22.035156 21.621094 -21.910156 C 15.605469 -18.632812 9.917969 -17.015625 4.648438 -17.015625 Z M 4.648438 -17.015625 "/></g></g></g><g fill="#000000" fill-opacity="1"><g transform="translate(261.629871, 257.475393)"><g><path d="M -0.582031 -17.015625 C -0.707031 -17.015625 -0.828125 -17.054688 -0.914062 -17.097656 C -1.039062 -17.179688 -1.121094 -17.304688 -1.160156 -17.472656 C -1.203125 -17.636719 -1.203125 -17.925781 -1.121094 -18.300781 C -1.078125 -18.675781 -0.914062 -19.253906 -0.707031 -20.003906 C -0.496094 -20.707031 -0.25 -21.664062 0.125 -22.867188 L 0.621094 -24.441406 C 0.664062 -24.652344 0.789062 -24.816406 0.996094 -24.941406 C 1.160156 -25.066406 1.328125 -25.148438 1.535156 -25.148438 C 1.742188 -25.105469 1.910156 -25.023438 2.035156 -24.898438 C 2.117188 -24.773438 2.117188 -24.566406 2.074219 -24.359375 L 1.578125 -22.78125 C 1.121094 -21.332031 0.789062 -20.085938 0.496094 -19.089844 C 0.582031 -19.132812 0.664062 -19.171875 0.746094 -19.214844 C 1.949219 -20.042969 3.277344 -20.914062 4.730469 -21.828125 C 6.183594 -22.699219 7.59375 -23.488281 8.964844 -24.152344 C 10.332031 -24.816406 11.535156 -25.148438 12.53125 -25.148438 C 13.070312 -25.148438 13.488281 -24.980469 13.777344 -24.691406 C 14.027344 -24.402344 14.191406 -23.988281 14.316406 -23.53125 C 14.398438 -23.074219 14.441406 -22.574219 14.484375 -22.117188 C 14.523438 -21.496094 14.648438 -20.914062 14.773438 -20.375 C 14.898438 -19.835938 15.148438 -19.378906 15.519531 -19.046875 C 15.894531 -18.675781 16.558594 -18.507812 17.429688 -18.507812 C 19.296875 -18.507812 21.039062 -18.921875 22.660156 -19.753906 C 24.277344 -20.542969 25.855469 -21.496094 27.429688 -22.574219 L 28.21875 -23.03125 C 28.425781 -23.15625 28.59375 -23.238281 28.800781 -23.199219 C 29.007812 -23.15625 29.132812 -23.074219 29.214844 -22.90625 C 29.296875 -22.742188 29.296875 -22.574219 29.214844 -22.367188 C 29.132812 -22.160156 29.007812 -21.996094 28.800781 -21.871094 L 28.054688 -21.414062 C 26.933594 -20.667969 25.8125 -19.960938 24.652344 -19.339844 C 23.488281 -18.675781 22.285156 -18.136719 21.039062 -17.71875 C 19.753906 -17.261719 18.425781 -17.054688 17.015625 -17.054688 C 15.8125 -17.054688 14.898438 -17.304688 14.359375 -17.804688 C 13.820312 -18.300781 13.445312 -18.882812 13.28125 -19.585938 C 13.113281 -20.292969 13.03125 -20.957031 12.988281 -21.621094 C 12.949219 -22.328125 12.863281 -22.867188 12.738281 -23.199219 C 12.617188 -23.488281 12.410156 -23.65625 12.117188 -23.65625 C 11.328125 -23.65625 10.292969 -23.324219 9.003906 -22.699219 C 7.71875 -22.078125 6.390625 -21.332031 5.019531 -20.460938 C 3.652344 -19.585938 2.40625 -18.800781 1.371094 -18.09375 C 0.828125 -17.761719 0.375 -17.472656 -0.0429688 -17.179688 C -0.25 -17.054688 -0.414062 -17.015625 -0.582031 -17.015625 Z M -0.582031 -17.015625 "/></g></g></g><g fill="#000000" fill-opacity="1"><g transform="translate(289.59836, 257.475393)"><g><path d="M 5.394531 -16.808594 C 5.1875 -16.683594 4.980469 -16.558594 4.773438 -16.433594 C 2.988281 -15.355469 1.703125 -14.441406 0.828125 -13.734375 C -0.0429688 -12.988281 -0.582031 -12.410156 -0.828125 -12.035156 C -1.121094 -11.621094 -1.246094 -11.371094 -1.203125 -11.246094 C -1.246094 -11.164062 -1.246094 -11.082031 -1.203125 -10.996094 C -1.160156 -10.914062 -1.078125 -10.832031 -0.914062 -10.75 C -0.414062 -10.5 0.414062 -10.5 1.578125 -10.789062 C 2.738281 -11.082031 4.066406 -11.660156 5.601562 -12.53125 C 6.472656 -13.070312 6.972656 -13.613281 7.097656 -14.109375 C 7.179688 -14.980469 6.597656 -15.851562 5.394531 -16.808594 Z M -0.375 -9.089844 C -0.996094 -9.089844 -1.492188 -9.171875 -1.867188 -9.378906 C -2.574219 -9.753906 -2.820312 -10.332031 -2.699219 -11.121094 C -2.367188 -12.863281 -0.0429688 -15.0625 4.273438 -17.679688 C 3.816406 -18.011719 3.320312 -18.382812 2.699219 -18.800781 C 2.074219 -19.171875 1.492188 -19.628906 0.871094 -20.085938 C 0.0820312 -20.75 -0.25 -21.414062 -0.164062 -22.078125 C -0.125 -22.699219 0.0820312 -23.238281 0.414062 -23.613281 C 1.453125 -24.980469 3.070312 -26.144531 5.230469 -27.015625 C 7.386719 -27.886719 9.171875 -28.179688 10.625 -27.96875 C 11.828125 -27.679688 12.285156 -26.972656 11.992188 -25.769531 C 11.953125 -25.5625 11.828125 -25.398438 11.660156 -25.273438 C 11.453125 -25.148438 11.246094 -25.066406 11.039062 -25.066406 C 10.832031 -25.066406 10.707031 -25.148438 10.625 -25.273438 C 10.5 -25.398438 10.457031 -25.5625 10.5 -25.769531 C 10.539062 -25.9375 10.539062 -26.101562 10.5 -26.226562 C 10.457031 -26.351562 10.25 -26.476562 9.960938 -26.558594 C 8.839844 -26.683594 7.34375 -26.394531 5.5625 -25.6875 C 3.734375 -24.980469 2.40625 -24.109375 1.617188 -23.074219 C 1.453125 -22.867188 1.371094 -22.617188 1.371094 -22.328125 C 1.328125 -22.035156 1.535156 -21.703125 1.992188 -21.332031 C 2.574219 -20.875 3.238281 -20.417969 3.941406 -19.917969 C 4.648438 -19.464844 5.269531 -19.007812 5.894531 -18.550781 C 8.796875 -20.003906 12.078125 -21.164062 15.6875 -22.078125 C 19.296875 -22.992188 22.492188 -23.445312 25.355469 -23.445312 C 25.5625 -23.445312 25.730469 -23.363281 25.855469 -23.238281 C 25.9375 -23.113281 25.9375 -22.90625 25.894531 -22.699219 C 25.855469 -22.492188 25.730469 -22.328125 25.5625 -22.203125 C 25.355469 -22.078125 25.148438 -21.996094 24.941406 -21.996094 C 22.328125 -21.996094 19.378906 -21.578125 16.101562 -20.789062 C 12.78125 -19.960938 9.753906 -18.921875 7.011719 -17.636719 C 8.257812 -16.597656 8.796875 -15.4375 8.589844 -14.191406 C 8.382812 -13.15625 7.554688 -12.242188 6.140625 -11.371094 C 3.652344 -9.875 1.492188 -9.128906 -0.375 -9.089844 Z M -0.375 -9.089844 "/></g></g></g><g fill="#000000" fill-opacity="1"><g transform="translate(314.164155, 257.475393)"><g><path d="M 1.992188 -22.574219 C 4.273438 -22.285156 5.851562 -22.449219 6.640625 -23.03125 C 6.765625 -23.113281 6.847656 -23.199219 6.890625 -23.238281 C 6.929688 -23.28125 6.929688 -23.28125 6.929688 -23.324219 C 6.929688 -23.363281 6.847656 -23.445312 6.679688 -23.53125 C 6.515625 -23.613281 6.226562 -23.65625 5.808594 -23.65625 C 4.9375 -23.65625 4.191406 -23.570312 3.570312 -23.363281 C 2.945312 -23.15625 2.40625 -22.867188 1.992188 -22.574219 Z M 4.648438 -17.015625 L 4.148438 -17.015625 C 0.289062 -17.140625 -1.371094 -18.425781 -0.746094 -20.957031 C -0.621094 -21.539062 -0.25 -22.160156 0.289062 -22.78125 C 0.828125 -23.40625 1.617188 -23.988281 2.613281 -24.441406 C 3.570312 -24.898438 4.773438 -25.105469 6.183594 -25.105469 C 7.46875 -25.105469 8.21875 -24.734375 8.425781 -23.945312 C 8.546875 -23.40625 8.339844 -22.867188 7.800781 -22.328125 C 7.261719 -21.785156 6.433594 -21.414062 5.269531 -21.164062 C 4.066406 -20.875 2.574219 -20.914062 0.789062 -21.207031 L 0.707031 -20.957031 C 0.496094 -20.003906 0.828125 -19.339844 1.703125 -19.007812 C 2.53125 -18.632812 3.484375 -18.46875 4.566406 -18.46875 C 9.460938 -18.300781 15.023438 -19.878906 21.207031 -23.15625 C 21.414062 -23.28125 21.578125 -23.28125 21.785156 -23.238281 C 21.953125 -23.199219 22.078125 -23.074219 22.117188 -22.90625 C 22.160156 -22.699219 22.160156 -22.535156 22.078125 -22.367188 C 21.953125 -22.160156 21.828125 -22.035156 21.621094 -21.910156 C 15.605469 -18.632812 9.917969 -17.015625 4.648438 -17.015625 Z M 4.648438 -17.015625 "/></g></g></g><g fill="#000000" fill-opacity="1"><g transform="translate(335.036781, 257.475393)"><g><path d="M -0.582031 -17.015625 C -0.707031 -17.015625 -0.828125 -17.054688 -0.914062 -17.097656 C -1.039062 -17.179688 -1.121094 -17.304688 -1.160156 -17.472656 C -1.203125 -17.636719 -1.203125 -17.925781 -1.121094 -18.300781 C -1.078125 -18.675781 -0.914062 -19.253906 -0.707031 -20.003906 C -0.496094 -20.707031 -0.25 -21.664062 0.125 -22.867188 L 0.621094 -24.441406 C 0.664062 -24.652344 0.789062 -24.816406 0.996094 -24.941406 C 1.160156 -25.066406 1.328125 -25.148438 1.535156 -25.148438 C 1.742188 -25.105469 1.910156 -25.023438 2.035156 -24.898438 C 2.117188 -24.773438 2.117188 -24.566406 2.074219 -24.359375 L 1.578125 -22.78125 C 1.121094 -21.332031 0.789062 -20.085938 0.496094 -19.089844 C 0.582031 -19.132812 0.664062 -19.171875 0.746094 -19.214844 C 1.949219 -20.042969 3.277344 -20.914062 4.730469 -21.828125 C 6.183594 -22.699219 7.59375 -23.488281 8.964844 -24.152344 C 10.332031 -24.816406 11.535156 -25.148438 12.53125 -25.148438 C 13.070312 -25.148438 13.488281 -24.980469 13.777344 -24.691406 C 14.027344 -24.402344 14.191406 -23.988281 14.316406 -23.53125 C 14.398438 -23.074219 14.441406 -22.574219 14.484375 -22.117188 C 14.523438 -21.496094 14.648438 -20.914062 14.773438 -20.375 C 14.898438 -19.835938 15.148438 -19.378906 15.519531 -19.046875 C 15.894531 -18.675781 16.558594 -18.507812 17.429688 -18.507812 C 19.296875 -18.507812 21.039062 -18.921875 22.660156 -19.753906 C 24.277344 -20.542969 25.855469 -21.496094 27.429688 -22.574219 L 28.21875 -23.03125 C 28.425781 -23.15625 28.59375 -23.238281 28.800781 -23.199219 C 29.007812 -23.15625 29.132812 -23.074219 29.214844 -22.90625 C 29.296875 -22.742188 29.296875 -22.574219 29.214844 -22.367188 C 29.132812 -22.160156 29.007812 -21.996094 28.800781 -21.871094 L 28.054688 -21.414062 C 26.933594 -20.667969 25.8125 -19.960938 24.652344 -19.339844 C 23.488281 -18.675781 22.285156 -18.136719 21.039062 -17.71875 C 19.753906 -17.261719 18.425781 -17.054688 17.015625 -17.054688 C 15.8125 -17.054688 14.898438 -17.304688 14.359375 -17.804688 C 13.820312 -18.300781 13.445312 -18.882812 13.28125 -19.585938 C 13.113281 -20.292969 13.03125 -20.957031 12.988281 -21.621094 C 12.949219 -22.328125 12.863281 -22.867188 12.738281 -23.199219 C 12.617188 -23.488281 12.410156 -23.65625 12.117188 -23.65625 C 11.328125 -23.65625 10.292969 -23.324219 9.003906 -22.699219 C 7.71875 -22.078125 6.390625 -21.332031 5.019531 -20.460938 C 3.652344 -19.585938 2.40625 -18.800781 1.371094 -18.09375 C 0.828125 -17.761719 0.375 -17.472656 -0.0429688 -17.179688 C -0.25 -17.054688 -0.414062 -17.015625 -0.582031 -17.015625 Z M -0.582031 -17.015625 "/></g></g></g></svg>