<svg xmlns="http://www.w3.org/2000/svg" xmlns:xlink="http://www.w3.org/1999/xlink" width="500" zoomAndPan="magnify" viewBox="0 0 375 374.999991" height="500" preserveAspectRatio="xMidYMid meet" version="1.0"><defs><clipPath id="3d68e15be6"><path d="M 54.824219 54.824219 L 320.324219 54.824219 L 320.324219 320.324219 L 54.824219 320.324219 Z M 54.824219 54.824219 " clip-rule="nonzero"/></clipPath></defs><path fill="#000000" d="M 271.917969 163.046875 C 273.039062 158.570312 273.601562 154.027344 273.605469 149.410156 C 273.605469 147.882812 273.546875 146.359375 273.425781 144.839844 C 273.300781 143.316406 273.121094 141.800781 272.875 140.296875 C 272.632812 138.789062 272.328125 137.292969 271.964844 135.808594 C 271.601562 134.328125 271.179688 132.863281 270.695312 131.414062 C 270.214844 129.964844 269.675781 128.539062 269.078125 127.132812 C 268.484375 125.726562 267.832031 124.347656 267.125 122.996094 C 266.417969 121.640625 265.65625 120.320312 264.84375 119.027344 C 264.027344 117.734375 263.164062 116.480469 262.25 115.257812 C 261.335938 114.035156 260.375 112.851562 259.363281 111.707031 C 258.351562 110.5625 257.300781 109.457031 256.199219 108.398438 C 255.101562 107.339844 253.964844 106.324219 252.78125 105.355469 C 251.601562 104.386719 250.386719 103.46875 249.132812 102.597656 C 247.878906 101.726562 246.589844 100.90625 245.269531 100.140625 C 243.953125 99.375 242.601562 98.660156 241.226562 98.003906 C 239.847656 97.34375 238.445312 96.742188 237.019531 96.195312 C 235.597656 95.648438 234.152344 95.160156 232.6875 94.730469 C 231.222656 94.300781 229.742188 93.933594 228.246094 93.621094 C 226.753906 93.3125 225.246094 93.0625 223.734375 92.871094 C 222.21875 92.679688 220.699219 92.554688 219.171875 92.484375 C 217.648438 92.417969 216.125 92.410156 214.597656 92.46875 C 213.070312 92.523438 211.550781 92.640625 210.035156 92.816406 C 208.519531 92.992188 207.011719 93.230469 205.515625 93.53125 C 204.019531 93.828125 202.535156 94.1875 201.066406 94.605469 C 199.597656 95.023438 198.148438 95.5 196.71875 96.035156 C 195.289062 96.570312 193.882812 97.160156 192.503906 97.808594 C 191.121094 98.457031 189.765625 99.15625 188.441406 99.914062 C 187.113281 100.671875 185.820312 101.480469 184.558594 102.339844 C 183.296875 103.199219 182.074219 104.109375 180.886719 105.070312 C 179.699219 106.027344 178.550781 107.035156 177.445312 108.085938 C 176.335938 109.136719 175.273438 110.230469 174.253906 111.367188 C 173.238281 112.503906 172.265625 113.679688 171.339844 114.894531 C 170.417969 116.109375 169.542969 117.359375 168.71875 118.644531 C 167.917969 118.261719 167.105469 117.902344 166.28125 117.566406 C 165.457031 117.234375 164.621094 116.929688 163.78125 116.648438 C 162.9375 116.367188 162.085938 116.113281 161.226562 115.886719 C 160.367188 115.660156 159.5 115.460938 158.628906 115.289062 C 157.757812 115.117188 156.882812 114.972656 156 114.855469 C 155.121094 114.738281 154.234375 114.648438 153.347656 114.585938 C 152.460938 114.527344 151.574219 114.492188 150.6875 114.488281 C 149.796875 114.484375 148.910156 114.507812 148.023438 114.558594 C 147.136719 114.609375 146.25 114.6875 145.367188 114.792969 C 144.484375 114.898438 143.609375 115.035156 142.734375 115.195312 C 141.859375 115.359375 140.992188 115.546875 140.132812 115.765625 C 139.269531 115.984375 138.414062 116.226562 137.570312 116.496094 C 136.722656 116.769531 135.886719 117.066406 135.058594 117.390625 C 134.230469 117.714844 133.414062 118.0625 132.609375 118.4375 C 131.800781 118.8125 131.007812 119.214844 130.230469 119.636719 C 129.449219 120.0625 128.683594 120.511719 127.929688 120.988281 C 127.179688 121.460938 126.441406 121.957031 125.722656 122.476562 C 125 122.996094 124.296875 123.539062 123.613281 124.105469 C 122.925781 124.667969 122.257812 125.253906 121.609375 125.859375 C 120.957031 126.46875 120.328125 127.09375 119.71875 127.742188 C 119.109375 128.386719 118.519531 129.050781 117.953125 129.734375 C 117.382812 130.417969 116.839844 131.121094 116.316406 131.835938 C 115.789062 132.554688 115.289062 133.289062 114.8125 134.039062 C 114.335938 134.789062 113.882812 135.554688 113.453125 136.332031 C 113.023438 137.109375 112.621094 137.898438 112.238281 138.703125 C 111.859375 139.507812 111.507812 140.324219 111.179688 141.148438 C 110.851562 141.972656 110.550781 142.808594 110.273438 143.65625 C 110 144.5 109.75 145.351562 109.53125 146.214844 C 109.308594 147.074219 109.113281 147.941406 108.949219 148.816406 C 108.78125 149.6875 108.640625 150.566406 108.53125 151.445312 C 108.417969 152.328125 108.335938 153.214844 108.28125 154.101562 C 108.226562 154.988281 108.195312 155.875 108.199219 156.765625 C 108.199219 158.035156 108.261719 159.320312 108.390625 160.621094 C 107.199219 160.992188 106.027344 161.417969 104.871094 161.898438 C 103.714844 162.375 102.585938 162.902344 101.476562 163.480469 C 100.371094 164.058594 99.289062 164.6875 98.238281 165.359375 C 97.183594 166.035156 96.164062 166.753906 95.175781 167.519531 C 94.1875 168.285156 93.234375 169.089844 92.320312 169.941406 C 91.402344 170.789062 90.523438 171.675781 89.6875 172.605469 C 88.847656 173.53125 88.054688 174.496094 87.300781 175.492188 C 86.550781 176.492188 85.84375 177.519531 85.183594 178.582031 C 84.519531 179.640625 83.90625 180.730469 83.34375 181.84375 C 82.777344 182.957031 82.265625 184.097656 81.800781 185.257812 C 81.339844 186.417969 80.925781 187.597656 80.570312 188.792969 C 80.210938 189.992188 79.90625 191.203125 79.652344 192.425781 C 79.402344 193.648438 79.207031 194.882812 79.0625 196.125 C 78.921875 197.367188 78.835938 198.613281 78.804688 199.863281 C 78.773438 201.109375 78.796875 202.359375 78.875 203.605469 C 78.953125 204.855469 79.089844 206.09375 79.277344 207.332031 C 79.46875 208.566406 79.710938 209.789062 80.011719 211.003906 C 80.308594 212.21875 80.660156 213.414062 81.066406 214.597656 C 81.46875 215.78125 81.925781 216.941406 82.433594 218.085938 C 82.941406 219.226562 83.5 220.34375 84.105469 221.4375 C 84.714844 222.527344 85.367188 223.59375 86.070312 224.625 C 86.769531 225.660156 87.515625 226.660156 88.308594 227.628906 C 89.097656 228.597656 89.929688 229.527344 90.800781 230.421875 C 91.675781 231.316406 92.585938 232.171875 93.535156 232.984375 C 94.484375 233.796875 95.464844 234.566406 96.484375 235.292969 C 97.5 236.019531 98.546875 236.699219 99.625 237.332031 C 100.703125 237.964844 101.804688 238.550781 102.933594 239.085938 C 104.0625 239.621094 105.214844 240.105469 106.386719 240.539062 C 107.558594 240.972656 108.75 241.351562 109.953125 241.679688 C 111.160156 242.007812 112.378906 242.28125 113.609375 242.5 C 114.839844 242.71875 116.078125 242.882812 117.320312 242.992188 C 118.566406 243.101562 119.8125 243.15625 121.0625 243.15625 L 167.007812 243.15625 L 167.007812 290.503906 L 154.363281 277.859375 L 146.574219 285.652344 L 172.523438 311.605469 L 198.472656 285.652344 L 190.679688 277.859375 L 178.035156 290.503906 L 178.035156 232.125 L 121.0625 232.125 C 120.097656 232.128906 119.132812 232.082031 118.171875 231.996094 C 117.210938 231.90625 116.253906 231.773438 115.304688 231.597656 C 114.355469 231.421875 113.417969 231.199219 112.488281 230.9375 C 111.5625 230.671875 110.648438 230.367188 109.746094 230.015625 C 108.847656 229.667969 107.964844 229.277344 107.101562 228.847656 C 106.234375 228.417969 105.394531 227.945312 104.574219 227.4375 C 103.753906 226.929688 102.957031 226.382812 102.1875 225.800781 C 101.417969 225.21875 100.675781 224.601562 99.964844 223.949219 C 99.253906 223.296875 98.570312 222.613281 97.921875 221.898438 C 97.273438 221.183594 96.660156 220.441406 96.078125 219.667969 C 95.5 218.898438 94.957031 218.097656 94.449219 217.277344 C 93.945312 216.453125 93.476562 215.609375 93.050781 214.746094 C 92.621094 213.878906 92.234375 212.996094 91.890625 212.09375 C 91.542969 211.191406 91.242188 210.277344 90.980469 209.347656 C 90.71875 208.417969 90.5 207.476562 90.328125 206.527344 C 90.15625 205.578125 90.027344 204.621094 89.941406 203.660156 C 89.855469 202.699219 89.816406 201.734375 89.820312 200.769531 C 89.824219 199.804688 89.875 198.839844 89.96875 197.878906 C 90.0625 196.917969 90.203125 195.964844 90.382812 195.015625 C 90.566406 194.066406 90.792969 193.128906 91.0625 192.203125 C 91.332031 191.277344 91.644531 190.363281 92 189.464844 C 92.355469 188.566406 92.75 187.6875 93.1875 186.824219 C 93.621094 185.964844 94.097656 185.125 94.609375 184.308594 C 95.125 183.488281 95.675781 182.699219 96.261719 181.933594 C 96.851562 181.164062 97.472656 180.429688 98.128906 179.71875 C 98.785156 179.011719 99.472656 178.335938 100.191406 177.691406 C 100.910156 177.046875 101.65625 176.433594 102.433594 175.859375 C 103.207031 175.285156 104.007812 174.746094 104.832031 174.246094 C 105.660156 173.746094 106.503906 173.28125 107.375 172.859375 C 108.242188 172.4375 109.128906 172.058594 110.03125 171.71875 C 110.933594 171.375 111.851562 171.078125 112.785156 170.824219 C 113.714844 170.570312 114.65625 170.359375 115.605469 170.191406 L 121.277344 169.183594 C 120.140625 165.121094 119.457031 160.980469 119.226562 156.765625 C 119.226562 155.742188 119.277344 154.71875 119.378906 153.703125 C 119.480469 152.683594 119.628906 151.671875 119.832031 150.667969 C 120.03125 149.667969 120.28125 148.675781 120.578125 147.695312 C 120.875 146.71875 121.21875 145.753906 121.613281 144.8125 C 122.003906 143.867188 122.441406 142.941406 122.921875 142.039062 C 123.40625 141.136719 123.933594 140.261719 124.5 139.410156 C 125.070312 138.558594 125.679688 137.738281 126.328125 136.949219 C 126.976562 136.160156 127.664062 135.402344 128.386719 134.675781 C 129.109375 133.953125 129.867188 133.269531 130.65625 132.617188 C 131.445312 131.96875 132.269531 131.359375 133.117188 130.792969 C 133.96875 130.222656 134.84375 129.699219 135.746094 129.214844 C 136.648438 128.734375 137.574219 128.296875 138.515625 127.902344 C 139.460938 127.511719 140.425781 127.167969 141.402344 126.867188 C 142.382812 126.570312 143.371094 126.320312 144.375 126.121094 C 145.378906 125.921875 146.390625 125.769531 147.40625 125.667969 C 148.425781 125.566406 149.445312 125.515625 150.46875 125.515625 C 154.554688 125.792969 158.507812 126.671875 162.332031 128.144531 C 166.152344 129.621094 169.667969 131.628906 172.882812 134.167969 L 175.691406 128.648438 C 176.265625 127.503906 176.890625 126.390625 177.5625 125.300781 C 178.234375 124.210938 178.949219 123.148438 179.707031 122.121094 C 180.46875 121.089844 181.269531 120.09375 182.113281 119.128906 C 182.957031 118.167969 183.835938 117.242188 184.757812 116.351562 C 185.679688 115.464844 186.632812 114.613281 187.625 113.804688 C 188.617188 112.996094 189.640625 112.230469 190.695312 111.503906 C 191.75 110.78125 192.835938 110.101562 193.945312 109.46875 C 195.058594 108.835938 196.195312 108.25 197.355469 107.714844 C 198.515625 107.175781 199.699219 106.6875 200.902344 106.246094 C 202.101562 105.808594 203.320312 105.417969 204.554688 105.082031 C 205.789062 104.746094 207.035156 104.460938 208.292969 104.226562 C 209.550781 103.992188 210.816406 103.8125 212.089844 103.683594 C 213.363281 103.558594 214.640625 103.484375 215.921875 103.464844 C 217.199219 103.441406 218.476562 103.476562 219.753906 103.5625 C 221.03125 103.648438 222.304688 103.789062 223.566406 103.980469 C 224.832031 104.171875 226.085938 104.417969 227.332031 104.714844 C 228.578125 105.011719 229.808594 105.359375 231.023438 105.761719 C 232.238281 106.160156 233.433594 106.613281 234.613281 107.113281 C 235.789062 107.613281 236.945312 108.160156 238.078125 108.757812 C 239.210938 109.355469 240.3125 110 241.390625 110.6875 C 242.46875 111.378906 243.519531 112.109375 244.535156 112.886719 C 245.550781 113.664062 246.535156 114.480469 247.484375 115.339844 C 248.429688 116.199219 249.34375 117.097656 250.214844 118.03125 C 251.089844 118.96875 251.921875 119.9375 252.714844 120.941406 C 253.507812 121.949219 254.257812 122.984375 254.960938 124.050781 C 255.667969 125.117188 256.328125 126.214844 256.941406 127.335938 C 257.558594 128.460938 258.125 129.605469 258.640625 130.777344 C 259.160156 131.945312 259.628906 133.136719 260.046875 134.34375 C 260.464844 135.554688 260.835938 136.777344 261.152344 138.019531 C 261.46875 139.257812 261.730469 140.511719 261.945312 141.773438 C 262.15625 143.035156 262.316406 144.304688 262.421875 145.578125 C 262.527344 146.855469 262.578125 148.132812 262.578125 149.410156 C 262.253906 156.40625 260.792969 163.15625 258.199219 169.660156 L 263.433594 171.453125 C 264.300781 171.746094 265.152344 172.078125 265.992188 172.445312 C 266.832031 172.8125 267.652344 173.214844 268.453125 173.65625 C 269.257812 174.09375 270.039062 174.570312 270.800781 175.078125 C 271.558594 175.585938 272.296875 176.128906 273.011719 176.703125 C 273.722656 177.277344 274.410156 177.882812 275.070312 178.515625 C 275.730469 179.148438 276.359375 179.8125 276.960938 180.503906 C 277.5625 181.191406 278.132812 181.90625 278.671875 182.648438 C 279.210938 183.390625 279.714844 184.152344 280.1875 184.9375 C 280.65625 185.722656 281.09375 186.523438 281.496094 187.347656 C 281.894531 188.171875 282.257812 189.011719 282.585938 189.867188 C 282.910156 190.722656 283.199219 191.589844 283.449219 192.46875 C 283.699219 193.351562 283.910156 194.242188 284.082031 195.140625 C 284.253906 196.039062 284.382812 196.945312 284.476562 197.855469 C 284.566406 198.765625 284.617188 199.679688 284.628906 200.59375 C 284.640625 201.511719 284.609375 202.425781 284.542969 203.339844 C 284.472656 204.25 284.363281 205.160156 284.214844 206.0625 C 284.0625 206.964844 283.875 207.859375 283.644531 208.746094 C 283.417969 209.632812 283.152344 210.507812 282.84375 211.371094 C 282.539062 212.234375 282.195312 213.082031 281.816406 213.914062 C 281.4375 214.746094 281.019531 215.5625 280.566406 216.359375 C 280.117188 217.152344 279.628906 217.929688 279.109375 218.683594 C 278.589844 219.433594 278.035156 220.164062 277.453125 220.867188 C 276.867188 221.574219 276.253906 222.25 275.609375 222.902344 C 274.964844 223.550781 274.292969 224.171875 273.59375 224.761719 C 272.894531 225.355469 272.171875 225.914062 271.421875 226.441406 C 270.675781 226.96875 269.902344 227.460938 269.113281 227.921875 C 268.320312 228.378906 267.511719 228.804688 266.679688 229.191406 C 265.851562 229.578125 265.007812 229.929688 264.148438 230.242188 C 263.285156 230.558594 262.414062 230.832031 261.53125 231.070312 C 260.644531 231.304688 259.753906 231.503906 258.851562 231.660156 C 257.949219 231.816406 257.042969 231.933594 256.128906 232.011719 C 255.21875 232.089844 254.304688 232.128906 253.390625 232.125 L 207.441406 232.125 L 207.441406 184.78125 L 220.085938 197.425781 L 227.878906 189.628906 L 201.929688 163.675781 L 175.976562 189.628906 L 183.769531 197.421875 L 196.414062 184.777344 L 196.414062 243.15625 L 253.390625 243.15625 C 254.574219 243.15625 255.753906 243.109375 256.933594 243.011719 C 258.113281 242.917969 259.285156 242.769531 260.453125 242.574219 C 261.617188 242.378906 262.773438 242.136719 263.921875 241.84375 C 265.066406 241.550781 266.199219 241.210938 267.316406 240.820312 C 268.433594 240.433594 269.535156 240 270.613281 239.519531 C 271.695312 239.039062 272.753906 238.511719 273.792969 237.945312 C 274.828125 237.375 275.839844 236.761719 276.824219 236.105469 C 277.808594 235.453125 278.765625 234.757812 279.695312 234.023438 C 280.621094 233.285156 281.515625 232.515625 282.375 231.703125 C 283.238281 230.894531 284.0625 230.046875 284.855469 229.167969 C 285.644531 228.289062 286.398438 227.375 287.113281 226.433594 C 287.824219 225.488281 288.5 224.515625 289.132812 223.515625 C 289.761719 222.515625 290.351562 221.492188 290.898438 220.441406 C 291.445312 219.390625 291.945312 218.320312 292.402344 217.230469 C 292.855469 216.136719 293.265625 215.027344 293.628906 213.902344 C 293.992188 212.777344 294.304688 211.636719 294.570312 210.484375 C 294.839844 209.332031 295.054688 208.167969 295.226562 207 C 295.394531 205.828125 295.511719 204.652344 295.582031 203.46875 C 295.652344 202.289062 295.671875 201.105469 295.644531 199.925781 C 295.613281 198.742188 295.535156 197.5625 295.40625 196.386719 C 295.277344 195.210938 295.097656 194.039062 294.871094 192.878906 C 294.644531 191.71875 294.367188 190.570312 294.042969 189.429688 C 293.71875 188.292969 293.347656 187.171875 292.929688 186.0625 C 292.511719 184.957031 292.046875 183.871094 291.539062 182.800781 C 291.027344 181.734375 290.476562 180.691406 289.875 179.667969 C 289.277344 178.648438 288.640625 177.65625 287.957031 176.6875 C 287.277344 175.71875 286.554688 174.78125 285.796875 173.875 C 285.035156 172.96875 284.238281 172.097656 283.402344 171.257812 C 282.570312 170.417969 281.703125 169.617188 280.800781 168.847656 C 279.898438 168.082031 278.96875 167.355469 278.007812 166.667969 C 277.042969 165.980469 276.054688 165.332031 275.035156 164.730469 C 274.019531 164.125 272.980469 163.5625 271.914062 163.046875 Z M 271.917969 163.046875 " fill-opacity="1" fill-rule="nonzero"/><g clip-path="url(#3d68e15be6)"><path fill="#000000" d="M 187.574219 320.324219 C 114.234375 320.324219 54.824219 260.503906 54.824219 187.574219 C 54.824219 114.640625 114.234375 54.824219 187.574219 54.824219 C 260.914062 54.824219 320.324219 114.234375 320.324219 187.574219 C 320.324219 260.914062 260.503906 320.324219 187.574219 320.324219 Z M 187.574219 63.015625 C 118.738281 63.015625 63.015625 118.738281 63.015625 187.574219 C 63.015625 256.40625 118.738281 312.128906 187.574219 312.128906 C 256.40625 312.128906 312.128906 256.40625 312.128906 187.574219 C 312.128906 118.738281 255.996094 63.015625 187.574219 63.015625 Z M 187.574219 63.015625 " fill-opacity="1" fill-rule="nonzero"/></g></svg>